<svg width="18" height="18" viewBox="0 0 18 18" fill="none" xmlns="http://www.w3.org/2000/svg">
<path fill-rule="evenodd" clip-rule="evenodd" d="M17.5332 8.98818C17.5332 9.56527 17.4745 10.1416 17.3591 10.7033C17.2465 11.2517 17.0799 11.7901 16.8615 12.3048C16.6482 12.8104 16.3836 13.2976 16.0744 13.752C15.7698 14.2035 15.419 14.627 15.0335 15.0131C14.6473 15.3976 14.2222 15.7475 13.771 16.0534C13.3151 16.3604 12.8272 16.6246 12.3213 16.8389C11.8059 17.0561 11.2662 17.2226 10.7183 17.3349C10.1558 17.4506 9.57743 17.5096 8.9995 17.5096C8.42114 17.5096 7.84278 17.4506 7.28109 17.3349C6.73232 17.2226 6.19271 17.0561 5.67767 16.8389C5.17182 16.6246 4.68344 16.3604 4.2276 16.0534C3.77633 15.7475 3.35131 15.3976 2.96587 15.0131C2.58003 14.627 2.22915 14.2035 1.92414 13.752C1.61663 13.2976 1.35159 12.8104 1.13743 12.3048C0.91906 11.7901 0.751992 11.2517 0.639065 10.7033C0.524903 10.1416 0.466553 9.56527 0.466553 8.98818C0.466553 8.41065 0.52487 7.83313 0.639099 7.27261C0.752025 6.7242 0.919094 6.18496 1.13747 5.67111C1.35163 5.16516 1.61666 4.67751 1.92418 4.22313C2.22919 3.77127 2.58006 3.3485 2.9659 2.96195C3.35134 2.57746 3.77636 2.2284 4.22763 1.923C4.68348 1.61466 5.17186 1.35047 5.67771 1.13575C6.19274 0.918096 6.73232 0.751269 7.28112 0.639772C7.84282 0.524941 8.42118 0.466675 8.99954 0.466675C9.57746 0.466675 10.1558 0.524941 10.7184 0.639772C11.2663 0.751302 11.8059 0.918129 12.3214 1.13575C12.8272 1.35044 13.3152 1.61466 13.771 1.923C14.2223 2.2284 14.6473 2.57746 15.0336 2.96195C15.419 3.3485 15.7699 3.77127 16.0745 4.22313C16.3836 4.67751 16.6482 5.16519 16.8615 5.67111C17.0799 6.18496 17.2465 6.7242 17.3591 7.27261C17.4745 7.83313 17.5332 8.41065 17.5332 8.98818ZM5.89014 2.40605C3.85793 3.36433 2.34119 5.23422 1.86824 7.48775C2.06036 7.48942 5.09718 7.52771 8.5961 6.59938C7.3348 4.36166 5.98723 2.53549 5.89014 2.40605ZM9.19987 7.71995C5.44761 8.84169 1.84699 8.76097 1.71783 8.75601C1.71573 8.83422 1.71199 8.90993 1.71199 8.98817C1.71199 10.8576 2.41827 12.5619 3.57917 13.8506C3.57666 13.8468 5.57096 10.3138 9.50365 9.04393C9.59864 9.01232 9.69533 8.984 9.79116 8.95655C9.60826 8.54298 9.40863 8.12855 9.19987 7.71995ZM13.8122 3.52659C12.5292 2.39689 10.8446 1.71164 8.99948 1.71164C8.40736 1.71164 7.83274 1.78321 7.2823 1.91552C7.39145 2.062 8.7603 3.87529 10.0066 6.16041C12.7563 5.13103 13.7943 3.55321 13.8122 3.52659ZM10.2879 10.1624C10.2717 10.1677 10.2554 10.1724 10.2396 10.1782C5.93984 11.675 4.53571 14.6914 4.52052 14.7244C5.75769 15.6851 7.30944 16.2647 8.99953 16.2647C10.0087 16.2647 10.97 16.0595 11.8446 15.688C11.7367 15.0522 11.3134 12.8237 10.2879 10.1624ZM13.0718 15.0231C14.7081 13.9205 15.8702 12.1696 16.1944 10.1415C16.0444 10.0933 14.0055 9.44874 11.6533 9.82531C12.6092 12.4484 12.9976 14.5846 13.0718 15.0231ZM10.5675 7.24475C10.7367 7.59178 10.9005 7.94498 11.0517 8.29995C11.1055 8.42729 11.158 8.55212 11.2092 8.67693C13.7127 8.36235 16.179 8.89161 16.2845 8.91323C16.2678 7.18815 15.6498 5.60493 14.6273 4.36543C14.6136 4.38494 13.4448 6.07136 10.5675 7.24475Z" fill="white"/>
</svg>
