<svg width="18" height="18" viewBox="0 0 18 18" fill="none" xmlns="http://www.w3.org/2000/svg">
<path fill-rule="evenodd" clip-rule="evenodd" d="M9.00069 0.466675C6.68315 0.466675 6.3923 0.476808 5.48207 0.518231C4.57362 0.559831 3.95352 0.703655 3.41094 0.914679C2.84969 1.13264 2.37359 1.4242 1.89928 1.89869C1.42461 2.37301 1.13305 2.8491 0.91438 3.41017C0.702822 3.95293 0.55882 4.57321 0.517931 5.4813C0.47722 6.39154 0.466553 6.68256 0.466553 9.0001C0.466553 11.3176 0.476864 11.6076 0.518109 12.5178C0.559887 13.4263 0.703711 14.0464 0.914557 14.589C1.13269 15.1502 1.42425 15.6263 1.89875 16.1006C2.37288 16.5753 2.84898 16.8676 3.40987 17.0855C3.95281 17.2965 4.57308 17.4404 5.48136 17.482C6.39159 17.5234 6.68226 17.5335 8.99962 17.5335C11.3173 17.5335 11.6073 17.5234 12.5175 17.482C13.426 17.4404 14.0468 17.2965 14.5897 17.0855C15.1508 16.8676 15.6262 16.5753 16.1003 16.1006C16.575 15.6263 16.8665 15.1502 17.0852 14.5891C17.295 14.0464 17.439 13.4261 17.4817 12.518C17.5226 11.6078 17.5332 11.3176 17.5332 9.0001C17.5332 6.68256 17.5226 6.39171 17.4817 5.48148C17.439 4.57303 17.295 3.95293 17.0852 3.41035C16.8665 2.8491 16.575 2.37301 16.1003 1.89869C15.6256 1.42402 15.151 1.13246 14.5892 0.914679C14.0452 0.703655 13.4247 0.559831 12.5163 0.518231C11.606 0.476808 11.3163 0.466675 8.99802 0.466675H9.00069ZM8.23513 2.00444C8.46233 2.00409 8.71585 2.00444 9.00065 2.00444C11.2791 2.00444 11.5491 2.01262 12.4489 2.05351C13.2809 2.09156 13.7324 2.23058 14.0332 2.34738C14.4315 2.50205 14.7154 2.68694 15.0139 2.98561C15.3125 3.28428 15.4974 3.56873 15.6525 3.96695C15.7693 4.2674 15.9085 4.71896 15.9463 5.55097C15.9872 6.45054 15.9961 6.72076 15.9961 8.99812C15.9961 11.2755 15.9872 11.5457 15.9463 12.4453C15.9083 13.2773 15.7693 13.7288 15.6525 14.0293C15.4978 14.4275 15.3125 14.7111 15.0139 15.0096C14.7152 15.3082 14.4316 15.4931 14.0332 15.6478C13.7328 15.7651 13.2809 15.9038 12.4489 15.9418C11.5493 15.9827 11.2791 15.9916 9.00065 15.9916C6.72205 15.9916 6.452 15.9827 5.55244 15.9418C4.72043 15.9034 4.26887 15.7644 3.96789 15.6476C3.56966 15.4929 3.28521 15.3081 2.98654 15.0094C2.68787 14.7107 2.50298 14.427 2.34796 14.0286C2.23116 13.7281 2.09196 13.2766 2.05409 12.4446C2.0132 11.545 2.00502 11.2748 2.00502 8.99598C2.00502 6.7172 2.0132 6.4484 2.05409 5.54884C2.09213 4.71683 2.23116 4.26527 2.34796 3.96447C2.50263 3.56624 2.68787 3.28179 2.98654 2.98312C3.28521 2.68445 3.56966 2.49956 3.96789 2.34454C4.26869 2.2272 4.72043 2.08853 5.55244 2.05031C6.33964 2.01476 6.64471 2.00409 8.23513 2.00231V2.00444ZM13.5557 3.42135C12.9904 3.42135 12.5317 3.87949 12.5317 4.44501C12.5317 5.01035 12.9904 5.46902 13.5557 5.46902C14.1211 5.46902 14.5797 5.01035 14.5797 4.44501C14.5797 3.87967 14.1211 3.42135 13.5557 3.42135ZM9.0007 4.61781C6.58059 4.61781 4.61843 6.57996 4.61843 9.00007C4.61843 11.4202 6.58059 13.3815 9.0007 13.3815C11.4208 13.3815 13.3823 11.4202 13.3823 9.00007C13.3823 6.57996 11.4208 4.61781 9.0007 4.61781ZM9.00067 6.1556C10.5715 6.1556 11.8451 7.42903 11.8451 9.00007C11.8451 10.5709 10.5715 11.8445 9.00067 11.8445C7.42963 11.8445 6.15619 10.5709 6.15619 9.00007C6.15619 7.42903 7.42963 6.1556 9.00067 6.1556Z" fill="white"/>
</svg>
